HIERARCHY
ROOT Hips
{
	OFFSET 0.00000 0.00000 0.00000
	CHANNELS 6 Xposition Yposition Zposition Yrotation Zrotation Xrotation 
	JOINT Lumbar
	{
		OFFSET 0 0 0
		CHANNELS 3 Zrotation Xrotation Yrotation
		JOINT Neck
		{
			OFFSET 0.00 0.2701 0.00
			CHANNELS 3 Zrotation Xrotation Yrotation
			End Site
			{
				OFFSET 0.00 0.1379 0.00
			}
		}
		JOINT RightShoulder
		{
			OFFSET 0.0119 0.2289 0.1181
			CHANNELS 3 Zrotation Xrotation Yrotation
			JOINT RightElbow
			{
				OFFSET 0.00 -0.1475 0.00
				CHANNELS 2 Zrotation Yrotation
				JOINT RightWrist
				{
					OFFSET 0.00 -0.1605 0.00
					CHANNELS 2 Zrotation Xrotation
					End Site
					{
						OFFSET 0.0040 -0.1068 0.0006
					}
				}
			}
		}
		JOINT LeftShoulder
		{
			OFFSET 0.0119 0.2289 -0.1181
			CHANNELS 3 Zrotation Xrotation Yrotation
			JOINT LeftElbow
			{
				OFFSET 0.00 -0.1475 0.00
				CHANNELS 2 Zrotation Yrotation
				JOINT LeftWrist
				{
					OFFSET 0.00 -0.1605 0.00
					CHANNELS 2 Zrotation Xrotation
					End Site
					{
						OFFSET 0.0040 -0.1068 -0.0006
					}
				}
			}
		}
	}
	JOINT RightHip
	{
		OFFSET 0.0316 -0.0424 0.0458
		CHANNELS 3 Zrotation Xrotation Yrotation
		JOINT RightKnee
		{
			OFFSET 0.00 -0.2438 0.00
			CHANNELS 1 Zrotation
			JOINT RightAnkle
			{
				OFFSET 0.00 -0.2449 0.00
				CHANNELS 3 Zrotation Xrotation Yrotation
				End Site
				{
					OFFSET 0.1237 -0.0542 0.0051
				}
			}
		}
	}
	JOINT LeftHip
	{
		OFFSET 0.0316 -0.0424 -0.0458
		CHANNELS 3 Zrotation Xrotation Yrotation
		JOINT LeftKnee
		{
			OFFSET 0.00 -0.2438 0.00
			CHANNELS 1 Zrotation
			JOINT LeftAnkle
			{
				OFFSET 0.00 -0.2449 0.00
				CHANNELS 3 Zrotation Xrotation Yrotation
				End Site
				{
					OFFSET 0.1237 -0.0542 -0.0051
				}
			}
		}
	}
}
MOTION
Frames: 32
Frame Time: 0.02
-0.62261 -0.1509 0.76141 -937.91775 -42.50595 -12.58135 42.87221 -2.30072 -5.42845 -6.85961 3.52352 -0.83079 169.88194 -131.77998 64.17067 5.32874 121.75413 85.31322 -22.97005 -13.68809 17.86426 -9.00312 121.44964 -97.88633 -22.34977 6.60672 49.86808 -12.23283 -7.78671 -39.28651 -7.71329 -2.10111 -1.74798 33.88728 -6.82746 10.82608 -13.97811 -7.23474 3.26582 2.36899
-0.62754 -0.15208 0.7592 -938.43976 -42.63827 -12.65089 42.91365 -2.36933 -5.44895 -6.94167 3.51081 -0.83079 169.88194 -131.65156 64.17067 5.32874 121.83142 85.31322 -22.97004 -13.6989 17.58675 -9.36793 121.52094 -95.49941 -21.05511 6.20718 50.999 -11.50663 -7.15144 -36.20001 -7.86273 -2.43006 -1.94092 32.78264 -7.17361 10.38352 -12.57969 -7.30158 3.32669 2.40791
-0.6325 -0.1534 0.75666 -938.95261 -42.78436 -12.62518 43.00443 -2.47404 -5.39055 -7.05721 3.48498 -0.83079 169.88194 -131.49772 64.17067 5.32874 121.95806 85.31322 -22.97003 -13.79342 17.36954 -9.8037 121.61566 -91.86473 -19.19275 5.59614 52.03832 -10.87014 -6.1519 -32.94047 -8.07684 -2.81386 -2.16876 31.61705 -7.59836 9.86412 -11.07216 -7.31337 3.39252 2.44451
-0.63746 -0.15468 0.75423 -939.46408 -42.9298 -12.6386 43.08027 -2.56337 -5.37149 -7.15622 3.46558 -0.83079 169.88194 -131.32639 64.17067 5.32874 122.058 85.31322 -22.97002 -13.85705 17.11439 -10.1948 121.70507 -88.85909 -17.62046 5.07571 53.12643 -10.21368 -5.36142 -29.8168 -8.25288 -3.1629 -2.37461 30.48439 -7.98707 9.41659 -9.61844 -7.22445 3.46963 2.47694
-0.64236 -0.15588 0.75194 -940.00209 -43.05412 -12.66872 43.12621 -2.6489 -5.33433 -7.26061 3.44403 -0.83079 169.88194 -131.27485 64.17067 5.32874 122.1771 85.31322 -22.97001 -13.89154 16.89422 -10.63955 121.77441 -85.60091 -15.91595 4.57794 54.18291 -9.4627 -4.374 -26.4099 -8.471 -3.55477 -2.60721 29.33138 -8.37986 8.79667 -8.14097 -7.64125 3.51606 2.54181
-0.64739 -0.15727 0.74929 -940.47889 -43.22377 -12.64169 43.24485 -2.75025 -5.3186 -7.36166 3.42423 -0.83079 169.88194 -130.9674 64.17067 5.32874 122.26542 85.31322 -22.97 -14.00617 16.62081 -10.98983 121.88915 -82.57492 -14.352 3.98567 55.27865 -8.93181 -3.71239 -23.57103 -8.61593 -3.87054 -2.79247 28.20556 -8.78013 8.53577 -6.69372 -7.02303 3.59483 2.52574
-0.65269 -0.1591 0.74584 -940.82173 -43.52679 -12.48186 43.56065 -2.89175 -5.3665 -7.44735 3.40859 -0.83079 169.88194 -129.9801 64.17067 5.32875 122.28385 85.31322 -22.97 -14.32252 16.16475 -11.05034 122.13646 -80.42054 -13.29989 3.1498 56.57137 -8.99393 -4.07415 -22.30341 -8.52826 -3.95521 -2.83331 27.17073 -9.20152 9.11703 -5.30271 -3.29054 4.06809 2.40972
-0.65811 -0.16112 0.74203 -941.09805 -43.87253 -12.26821 43.94652 -3.04668 -5.44136 -7.52837 3.39606 -0.83079 169.88194 -128.73487 64.17066 5.32876 122.26515 85.31322 -22.97001 -14.71665 15.65768 -11.01474 122.42626 -78.55422 -12.41085 2.23149 57.89507 -9.2733 -4.77083 -21.62583 -8.36655 -3.96247 -2.82605 26.16513 -9.62352 10.07908 -3.95626 1.43132 4.53585 2.19919
-0.6635 -0.16306 0.73832 -941.38216 -44.19099 -12.0775 44.29418 -3.19231 -5.51439 -7.60998 3.38433 -0.83079 169.88194 -127.59245 64.17066 5.32877 122.24528 85.31322 -22.97001 -15.07404 15.18918 -11.03101 122.68765 -76.60327 -11.4567 1.37405 59.16286 -9.4506 -5.29577 -20.70999 -8.24722 -4.00994 -2.84405 25.14501 -10.03274 10.99632 -2.62465 5.52337 4.78046 1.93868
-0.6688 -0.16497 0.73485 -941.757 -44.54339 -11.88748 44.6691 -3.35375 -5.54222 -7.69841 3.36191 -0.83079 169.88193 -126.502 64.17066 5.32878 122.30153 85.31322 -22.97001 -15.43893 14.65904 -11.01706 122.9874 -74.41518 -10.44552 0.41341 60.60572 -9.64849 -5.89619 -19.6628 -8.09298 -4.03839 -2.84907 24.12722 -10.49917 11.4307 -1.14031 10.37806 5.89821 2.02987
-0.67433 -0.16697 0.7308 -941.9318 -44.83477 -11.68748 45.00493 -3.48364 -5.66963 -7.77212 3.36376 -0.83079 169.88193 -125.25229 64.17066 5.32879 122.19198 85.31322 -22.97002 -15.80721 14.24273 -11.03997 123.21816 -72.80373 -9.59837 -0.35282 61.69026 -9.84957 -6.41616 -19.02974 -7.99354 -4.08702 -2.86909 23.1133 -10.84344 12.88538 0.01293 13.87849 5.29594 1.41701
-0.68045 -0.16924 0.72532 -941.53116 -44.9492 -11.44762 45.2007 -3.53464 -6.08309 -7.79741 3.42224 -0.83079 169.88193 -123.54163 64.17065 5.32881 121.61488 85.31322 -22.97003 -16.15129 14.16808 -11.20738 123.23848 -72.73691 -9.17512 -0.52757 61.79675 -10.04427 -6.70179 -19.41609 -8.05775 -4.21262 -2.94327 22.09745 -10.86767 17.74584 0.265 13.3982 -0.94251 -1.56985
-0.68682 -0.17158 0.71925 -940.93908 -45.00002 -11.20457 45.35698 -3.55121 -6.59285 -7.8095 3.50666 -0.83079 169.88189 -121.69554 64.17064 5.32885 120.87579 85.3132 -22.97003 -16.49818 14.20688 -11.41112 123.18965 -73.24278 -8.91259 -0.50813 61.53807 -10.22758 -6.88554 -20.19625 -8.17987 -4.36033 -3.03372 21.08768 -10.76522 23.5085 0.18078 11.52181 -8.76733 -5.18899
-0.6931 -0.17384 0.71339 -940.46022 -45.07895 -10.98049 45.54127 -3.57566 -7.04745 -7.83333 3.58589 -0.83079 169.88197 -119.96683 64.17067 5.32881 120.22254 85.31327 -22.97005 -16.85316 14.18347 -11.58545 123.17853 -73.47734 -8.57161 -0.60047 61.43521 -10.39027 -7.06981 -20.78365 -8.27965 -4.49636 -3.11603 20.07669 -10.70895 28.39204 0.25313 10.28195 -15.25644 -8.20684
-0.69926 -0.17629 0.70776 -939.86752 -45.16391 -10.68153 45.68673 -3.63293 -7.55139 -7.83291 3.63835 -0.83079 169.88185 -117.9932 64.17062 5.32892 119.51514 85.31317 -22.97005 -17.17225 14.20251 -11.81151 123.1421 -73.76645 -8.25691 -0.60086 61.37797 -10.66782 -7.45148 -21.44904 -8.36232 -4.63733 -3.20033 19.05257 -10.70099 35.20616 0.32312 9.06218 -24.25353 -12.50578
-0.70573 -0.17837 0.70151 -939.46838 -45.2192 -10.53721 45.90132 -3.61408 -7.97468 -7.87976 3.75147 -0.83079 169.88186 -116.50112 64.17062 5.32893 118.88414 85.31318 -22.97006 -17.56461 14.1617 -11.93896 123.14176 -74.07602 -7.92597 -0.74008 61.1363 -10.7027 -7.40268 -22.03871 -8.49252 -4.77339 -3.28433 18.06638 -10.56211 38.2877 0.30003 7.46332 -28.51352 -14.34508
-0.71305 -0.17949 0.69369 -939.64201 -45.21976 -10.8318 46.32752 -3.38806 -8.15491 -8.06134 4.03607 -0.83079 169.88224 -116.36774 64.17076 5.32865 118.48877 85.3135 -22.97012 -18.16665 13.92009 -11.79234 123.25399 -74.28788 -7.49137 -1.35706 60.49386 -10.05113 -6.10973 -22.31293 -8.76437 -4.89809 -3.36919 17.10356 -10.09406 30.1502 0.26058 5.0921 -18.34455 -8.71552
-0.72066 -0.18025 0.68526 -940.0189 -45.18999 -11.28009 46.82156 -3.08757 -8.24973 -8.29057 4.37878 -0.83079 169.88115 -116.72286 64.17035 5.32955 118.17799 85.3126 -22.96999 -18.8396 13.61631 -11.54482 123.40501 -74.50166 -7.0384 -2.11177 59.67459 -9.15845 -4.40037 -22.49623 -9.07794 -5.01603 -3.45235 16.19442 -9.49829 18.34693 0.10867 2.39517 -3.52297 -0.68039
-0.72809 -0.18115 0.6771 -940.3088 -45.16663 -11.65133 47.27778 -2.82459 -8.3817 -8.4976 4.68821 -0.83079 169.88272 -116.86201 64.17093 5.3283 117.83953 85.31391 -22.97021 -19.47551 13.34594 -11.3387 123.54125 -74.72275 -6.60506 -2.77164 58.92369 -8.38727 -2.93283 -22.72478 -9.35648 -5.1325 -3.53279 15.31179 -8.96022 8.68021 -0.09411 -0.1137 8.5266 5.90451
-0.7357 -0.18214 0.66892 -940.56959 -45.17337 -12.05385 47.76493 -2.54485 -8.52492 -8.70732 5.02794 -0.83079 169.8824 -116.98259 64.17081 5.3286 117.45341 85.31363 -22.97018 -20.13538 13.0565 -11.15069 123.66495 -74.93035 -6.12719 -3.55893 58.21107 -7.56445 -1.24031 -22.95098 -9.70434 -5.26899 -3.6285 14.21069 -8.41949 -2.91957 0.12609 -2.83999 23.25711 13.95219
-0.74301 -0.18285 0.66066 -940.94138 -45.10961 -12.42646 48.2008 -2.28292 -8.62209 -8.92186 5.31754 -0.83079 169.87752 -117.24487 64.16897 5.33256 117.18443 85.30959 -22.96956 -20.75777 12.79207 -10.90292 123.82255 -75.15787 -5.73887 -4.11854 57.38101 -6.79334 0.08164 -23.15511 -9.91762 -5.36178 -3.6918 13.58206 -7.85521 -11.40311 -0.56231 -5.1723 33.57934 19.56059
-0.74951 -0.18287 0.65221 -941.57534 -44.87072 -12.68995 48.50812 -2.08747 -8.62137 -9.14742 5.45855 -0.83079 169.89212 -117.89292 64.17443 5.32074 117.24904 85.32171 -22.97147 -21.29688 12.59817 -10.49448 124.08411 -75.4483 -5.57458 -3.99244 56.27513 -6.21331 0.27319 -23.31863 -9.74324 -5.33609 -3.66582 14.20425 -7.26239 -10.14998 -3.68238 -6.33377 30.16335 17.60568
-0.75568 -0.18263 0.64372 -942.31443 -44.55988 -12.91592 48.75597 -1.91299 -8.57501 -9.37456 5.54625 -0.83079 169.86994 -118.63653 64.16614 5.33874 117.41858 85.30324 -22.96859 -21.78916 12.43338 -10.03309 124.37491 -75.75552 -5.50619 -3.63604 55.05795 -5.69609 0.07708 -23.46103 -9.4328 -5.26626 -3.60714 15.30742 -6.65065 -5.6825 -7.71782 -7.08033 22.23674 13.15992
-0.76194 -0.18253 0.6353 -943.00228 -44.27447 -13.15187 49.012 -1.72955 -8.54381 -9.59482 5.65557 -0.83079 169.87724 -119.27456 64.16882 5.33273 117.52717 85.30946 -22.96954 -22.2777 12.26399 -9.609 124.63985 -76.04498 -5.41023 -3.40352 53.89024 -5.1566 0.06244 -23.61275 -9.18818 -5.21643 -3.56363 16.21733 -6.04392 -2.84531 -11.36861 -8.01306 16.66506 10.01557
-0.76845 -0.18234 0.62664 -943.70988 -44.01905 -13.42323 49.35067 -1.54063 -8.53406 -9.84252 5.77788 -0.83079 169.93868 -120.2314 64.19187 5.28314 117.71557 85.36025 -22.97757 -22.87276 12.05697 -9.12517 124.95988 -76.37233 -5.24287 -3.10162 52.72108 -4.58045 0.04345 -23.76419 -8.92816 -5.16744 -3.5192 17.02312 -5.44497 0.57974 -14.90246 -8.97158 9.97244 6.24284
-0.77436 -0.18228 0.61847 -944.401 -43.68397 -13.60967 49.50133 -1.36967 -8.46888 -10.03312 5.8598 -0.83079 169.74312 -120.49108 64.11865 5.44144 117.73531 85.19789 -22.95207 -23.2359 11.9349 -8.75494 125.17071 -76.63134 -5.25133 -2.87889 51.5305 -4.10089 -0.06828 -23.91051 -8.66744 -5.1053 -3.46837 18.15812 -4.83053 3.59191 -18.88162 -9.7691 4.47593 3.1519
-0.7787 -0.18272 0.61164 -945.00159 -43.15168 -13.5722 49.15503 -1.23855 -8.27047 -10.06292 5.84177 -0.83079 170.05463 -119.24159 64.23507 5.18876 117.50428 85.45731 -22.99266 -22.95296 12.05083 -8.70807 125.08074 -76.63913 -5.68523 -3.00874 50.3138 -3.8555 -0.30506 -24.0632 -8.43715 -5.02624 -3.4128 20.09528 -4.14818 4.69013 -23.98272 -10.25699 3.42596 2.57842
-0.78245 -0.1833 0.60532 -945.58536 -42.54131 -13.44955 48.62033 -1.1261 -8.01651 -10.03545 5.78476 -0.83079 169.91726 -117.21603 64.18422 5.30141 117.0659 85.3411 -22.97486 -22.44149 12.25001 -8.77835 124.87853 -76.58819 -6.29874 -3.21253 49.0801 -3.70961 -0.62949 -24.20907 -8.21095 -4.93399 -3.35105 22.34508 -3.45694 5.27841 -29.47499 -10.58929 3.70439 2.76011
-0.78645 -0.1838 0.59879 -946.18747 -41.96298 -13.3642 48.16587 -1.00841 -7.78293 -10.03577 5.74648 -0.83079 169.15021 -115.23832 63.89624 5.92032 116.54979 84.70735 -22.87465 -22.04501 12.40391 -8.79785 124.7219 -76.60261 -6.85525 -3.32901 47.85023 -3.53059 -0.94111 -24.34829 -7.98311 -4.84209 -3.28883 24.44409 -2.79019 6.10961 -34.7152 -10.96894 3.32542 2.56752
-0.79051 -0.18438 0.59215 -946.74499 -41.395 -13.28357 47.72997 -0.87741 -7.56885 -10.0288 5.70275 -0.83079 171.76193 -114.4966 64.87413 3.80643 116.71673 86.87519 -23.21533 -21.59822 12.58843 -8.8056 124.58786 -76.45519 -7.3149 -3.65816 46.62924 -3.30236 -1.15668 -24.52756 -7.74909 -4.77215 -3.23911 26.59575 -2.03709 7.00128 -40.31368 -11.43236 3.01992 2.42137
-0.7943 -0.18482 0.58586 -947.39406 -40.78992 -13.17337 47.21409 -0.77867 -7.30078 -10.02329 5.66096 -0.83079 167.40513 -111.06342 63.24572 7.33992 115.4689 83.24813 -22.64761 -21.20468 12.7308 -8.86565 124.38146 -76.6297 -8.01299 -3.57257 45.39164 -3.19973 -1.58211 -24.62248 -7.53136 -4.65431 -3.16258 28.70688 -1.46105 7.60719 -45.23106 -11.69047 2.93358 2.38927
-0.79749 -0.18486 0.58034 -948.26424 -40.08428 -13.00223 46.50082 -0.76114 -6.90425 -10.0369 5.64174 -0.83079 142.40032 -99.79397 53.85694 27.51227 109.85238 62.59397 -19.37967 -20.99627 12.71511 -9.04741 123.98747 -77.71725 -9.36606 -2.25797 44.07534 -3.4174 -2.61577 -24.48272 -7.35229 -4.40426 -3.01138 30.61712 -1.38457 7.51482 -48.30093 -11.41432 3.15517 2.50201
